<svg xmlns="http://www.w3.org/2000/svg" x="0px" y="0px" width="24" height="24" viewBox="0 0 172 172"
     style=" fill:#000000;">
    <g fill="none" stroke="none" stroke-width="1" stroke-miterlimit="10" stroke-dasharray=""
       stroke-dashoffset="0" font-family="none" font-size="none" style="mix-blend-mode: normal">
        <path d="M0,172v-172h172v172z" fill="none"></path>
        <g fill="#000000">
            <path d="M86,21.5c-15.83216,0 -28.66667,12.8345 -28.66667,28.66667c0,15.83216 12.8345,28.66667 28.66667,28.66667c15.83216,0 28.66667,-12.8345 28.66667,-28.66667c0,-15.83216 -12.8345,-28.66667 -28.66667,-28.66667zM86,100.33333c-22.5105,0 -64.5,11.0725 -64.5,32.25v17.91667h66.61361c-0.69517,-2.322 -1.23054,-4.71567 -1.5817,-7.16667h0.04199c-0.33683,-2.3435 -0.57389,-4.73 -0.57389,-7.16667c0,-7.7185 1.80242,-14.99916 4.92708,-21.52799c2.322,-4.87333 5.36515,-9.33705 9.07031,-13.18555c-5.074,-0.74533 -9.86223,-1.11979 -13.9974,-1.11979zM129.46191,100.33333c-0.9245,0 -1.69816,0.69236 -1.80566,1.6097l-0.83985,7.25065c-3.46867,1.204 -6.59893,3.03116 -9.32226,5.389l-6.71875,-2.91146c-0.84567,-0.3655 -1.82291,-0.03281 -2.28157,0.76986l-6.71875,11.61784c-0.45867,0.80267 -0.24826,1.82089 0.48991,2.36556l5.78093,4.2832c-0.33683,1.77733 -0.5459,3.59565 -0.5459,5.45899c0,1.86333 0.2019,3.67482 0.5459,5.44499l-5.76693,4.2972c-0.73817,0.55183 -0.95574,1.57006 -0.48991,2.36556l6.70475,11.61784c0.45867,0.80267 1.4499,1.12136 2.29557,0.75586l6.70475,-2.89746c2.71617,2.35067 5.8536,4.185 9.32226,5.389l0.83985,7.25065c0.10033,0.9245 0.88116,1.6097 1.80566,1.6097h13.40951c0.9245,0 1.69816,-0.69236 1.80566,-1.6097l0.83985,-7.25065c3.46867,-1.204 6.59893,-3.03116 9.32226,-5.389l6.71875,2.91146c0.84567,0.3655 1.82291,0.02564 2.28157,-0.76986l6.71875,-11.61784c0.45867,-0.80267 0.24826,-1.82089 -0.48991,-2.36556l-5.78093,-4.2972c0.344,-1.77017 0.5459,-3.58166 0.5459,-5.44499c0,-1.86333 -0.2019,-3.67482 -0.5459,-5.44499l5.76693,-4.2972c0.73817,-0.55183 0.95574,-1.57006 0.48991,-2.36556l-6.70475,-11.61784c-0.45867,-0.80267 -1.4499,-1.12136 -2.29557,-0.75586l-6.70475,2.89746c-2.71617,-2.35067 -5.8536,-4.185 -9.32226,-5.389l-0.83985,-7.25065c-0.10033,-0.9245 -0.88116,-1.6097 -1.80566,-1.6097zM136.16667,123.625c6.923,0 12.54167,5.6115 12.54167,12.54167c0,6.923 -5.61867,12.54167 -12.54167,12.54167c-6.923,0 -12.54167,-5.61867 -12.54167,-12.54167c0,-6.93017 5.61867,-12.54167 12.54167,-12.54167z"></path>
        </g>
    </g>
</svg>