<svg xmlns="http://www.w3.org/2000/svg" x="0px" y="0px" width="24" height="24" viewBox="0 0 172 172" style=" fill:#000000;"><g fill="none" fill-rule="nonzero" stroke="none" stroke-width="1" stroke-linecap="butt" stroke-linejoin="miter" stroke-miterlimit="10" stroke-dasharray="" stroke-dashoffset="0" font-family="none" font-weight="none" font-size="none" text-anchor="none" style="mix-blend-mode: normal"><path d="M0,172v-172h172v172z" fill="none"></path><g fill="#2ecc71"><path d="M136.16667,21.5h-100.33333c-7.91917,0 -14.33333,6.41417 -14.33333,14.33333v100.33333c0,7.91917 6.41417,14.33333 14.33333,14.33333h100.33333c7.91917,0 14.33333,-6.41417 14.33333,-14.33333v-100.33333c0,-7.91917 -6.41417,-14.33333 -14.33333,-14.33333zM76.7335,119.7335c-2.80217,2.80217 -7.33867,2.80217 -10.13367,0l-23.59983,-23.59983c-2.795,-2.795 -2.795,-7.33867 0,-10.13367v0c2.795,-2.795 7.33867,-2.795 10.13367,0l18.533,18.533l47.19967,-47.19967c2.795,-2.795 7.33867,-2.795 10.13367,0v0c2.795,2.795 2.795,7.33867 0,10.13367z"></path></g></g></svg>