<svg xmlns="http://www.w3.org/2000/svg" x="0px" y="0px" width="26" height="26" viewBox="0 0 226 226" style=" fill:#000000;"><g fill="none" fill-rule="nonzero" stroke="none" stroke-width="1" stroke-linecap="butt" stroke-linejoin="miter" stroke-miterlimit="10" stroke-dasharray="" stroke-dashoffset="0" font-family="none" font-weight="none" font-size="none" text-anchor="none" style="mix-blend-mode: normal"><path d="M0,226v-226h226v226z" fill="none"></path><g fill="#ffc107"><path d="M174.66106,2.17308c-5.16106,-0.03395 -10.22025,1.79958 -14.125,5.70433l-8.69231,8.96394l57.3149,57.58654l8.69231,-8.96394c7.84345,-7.84345 7.91136,-20.57632 0,-28.52163l-28.79327,-28.79327c-3.97265,-3.97265 -9.23558,-5.94201 -14.39663,-5.97596zM142.0649,24.71875l-13.58173,13.03846l59.75962,59.75962l13.85337,-12.76683zM119.79087,47.26442l-93.98558,93.17067c-2.17308,1.12049 -3.73497,3.08985 -4.34615,5.43269l-20.10096,68.18029c-0.91677,2.98798 -0.10187,6.28155 2.10517,8.48859c2.20703,2.20703 5.5006,3.02193 8.48858,2.10516l68.18029,-20.10096c3.15775,-0.47536 5.77224,-2.68239 6.79087,-5.70433l92.6274,-91.8125l-23.08894,-23.08894h-0.27163l-15.48317,-15.75481zM36.1274,155.91827l4.61779,4.61779l22.54567,1.90144l1.08654,22.0024l5.70433,5.70433l-36.67067,10.59375l-8.14904,-8.14904z"></path></g></g></svg>